<?xml version="1.0" encoding="UTF-8" standalone="no"?>
<svg
   xmlns:dc="http://purl.org/dc/elements/1.1/"
   xmlns:cc="http://creativecommons.org/ns#"
   xmlns:rdf="http://www.w3.org/1999/02/22-rdf-syntax-ns#"
   xmlns:svg="http://www.w3.org/2000/svg"
   xmlns="http://www.w3.org/2000/svg"
   viewBox="0 0 34.136002 34.136002"
   height="34.136002"
   width="34.136002"
   xml:space="preserve"
   id="svg2"
   version="1.1"><metadata
     id="metadata8"><rdf:RDF><cc:Work
         rdf:about=""><dc:format>image/svg+xml</dc:format><dc:type
           rdf:resource="http://purl.org/dc/dcmitype/StillImage" /></cc:Work></rdf:RDF></metadata><defs
     id="defs6"><clipPath
       id="clipPath18"
       clipPathUnits="userSpaceOnUse"><path
         id="path16"
         d="M 0,25.602 H 25.602 V 0 H 0 Z" /></clipPath></defs><g
     transform="matrix(1.3333333,0,0,-1.3333333,0,34.136)"
     id="g10"><g
       id="g12"><g
         clip-path="url(#clipPath18)"
         id="g14"><g
           transform="translate(12.801,4.801)"
           id="g20"><path
             id="path22"
             style="fill:#d87a61;fill-opacity:1;fill-rule:evenodd;stroke:none"
             d="m 0,0 c -0.934,0 -1.836,0.11 -2.703,0.293 l -3.77,-2.262 0.051,3.711 c -2.887,1.735 -4.777,4.606 -4.777,7.86 0,5.301 5.011,9.597 11.199,9.597 6.183,0 11.199,-4.296 11.199,-9.597 C 11.199,4.301 6.183,0 0,0 m 0,20.801 c -7.071,0 -12.801,-5.016 -12.801,-11.199 0,-3.535 1.875,-6.684 4.801,-8.735 v -5.668 l 5.605,3.403 C -1.617,-1.523 -0.821,-1.597 0,-1.597 7.07,-1.597 12.801,3.414 12.801,9.602 12.801,15.785 7.07,20.801 0,20.801 M 5.597,12 H -5.602 c -0.441,0 -0.801,-0.359 -0.801,-0.801 0,-0.441 0.36,-0.796 0.801,-0.796 H 5.597 c 0.442,0 0.801,0.355 0.801,0.796 C 6.398,11.641 6.039,12 5.597,12 M 4,7.199 h -8 c -0.442,0 -0.801,-0.355 -0.801,-0.796 0,-0.442 0.359,-0.801 0.801,-0.801 h 8 c 0.441,0 0.801,0.359 0.801,0.801 0,0.441 -0.36,0.796 -0.801,0.796" /></g></g></g></g></svg>