<?xml version="1.0" encoding="UTF-8" standalone="no"?>
<svg
   xmlns:dc="http://purl.org/dc/elements/1.1/"
   xmlns:cc="http://creativecommons.org/ns#"
   xmlns:rdf="http://www.w3.org/1999/02/22-rdf-syntax-ns#"
   xmlns:svg="http://www.w3.org/2000/svg"
   xmlns="http://www.w3.org/2000/svg"
   viewBox="0 0 34.126667 34.1236"
   height="34.1236"
   width="34.126667"
   xml:space="preserve"
   id="svg2"
   version="1.1"><metadata
     id="metadata8"><rdf:RDF><cc:Work
         rdf:about=""><dc:format>image/svg+xml</dc:format><dc:type
           rdf:resource="http://purl.org/dc/dcmitype/StillImage" /></cc:Work></rdf:RDF></metadata><defs
     id="defs6"><clipPath
       id="clipPath18"
       clipPathUnits="userSpaceOnUse"><path
         id="path16"
         d="M 0,25.593 H 25.595 V 0 H 0 Z" /></clipPath></defs><g
     transform="matrix(1.3333333,0,0,-1.3333333,0,34.1236)"
     id="g10"><g
       id="g12"><g
         clip-path="url(#clipPath18)"
         id="g14"><g
           transform="translate(10.77,6.0297)"
           id="g20"><path
             id="path22"
             style="fill:#57585c;fill-opacity:1;fill-rule:evenodd;stroke:none"
             d="m 0,0 c -5.036,0 -9.114,4.016 -9.114,8.965 0,4.953 4.078,8.969 9.114,8.969 5.031,0 9.109,-4.016 9.109,-8.969 C 9.109,4.016 5.031,0 0,0 m 14.582,-4.64 -6.61,6.504 c 1.731,1.879 2.793,4.367 2.793,7.101 0,5.856 -4.82,10.598 -10.765,10.598 -5.95,0 -10.77,-4.742 -10.77,-10.598 0,-5.851 4.82,-10.597 10.77,-10.597 2.566,0 4.925,0.89 6.777,2.367 l 6.633,-6.527 c 0.324,-0.317 0.847,-0.317 1.172,0 0.324,0.32 0.324,0.835 0,1.152" /></g></g></g></g></svg>